<svg xmlns="http://www.w3.org/2000/svg" width="1400" height="2500" version="1"><path style="text-align:center" d="M1002 1235.5c94 20 164.332 52 211 96 64.665 61.334 97 136.334 97 225 0 67.334-21.335 131.834-64 193.5-42.668 61.667-101.168 106.667-175.5 135-74.334 28.333-187.834 42.5-340.5 42.5H90v-37h51c56.667 0 97.333-18 122-54 15.333-23.333 23-73 23-149v-876c0-84-9.667-137-29-159-26-29.332-64.667-44-116-44H90v-37h586c109.333 0 197 8 263 24 100 24 176.332 66.5 229 127.5 52.665 61 79 131.168 79 210.5 0 68-20.668 128.834-62 182.5-41.334 53.667-102.334 93.5-183 119.5zm-524-54c24.666 4.667 52.833 8.167 84.5 10.5 31.666 2.334 66.5 3.5 104.5 3.5 97.333 0 170.5-10.5 219.5-31.5s86.5-53.166 112.5-96.5c26-43.332 39-90.666 39-142 0-79.332-32.334-147-97-203-64.667-56-159-84-283-84-66.667 0-126.667 7.335-180 22v521zm0 648c77.333 18 153.666 27 229 27 120.666 0 212.666-27.167 276-81.5 63.332-54.333 95-121.5 95-201.5 0-52.666-14.334-103.333-43-152-28.668-48.666-75.334-87-140-115-64.667-28-144.667-42-240-42-41.334 0-76.667.667-106 2-29.334 1.334-53 3.667-71 7v556z" font-size="2048" text-anchor="middle" font-family="Times New Roman"/></svg>